HIERARCHY
ROOT hip
{
	OFFSET 0.000000 0.000000 0.000000 
	CHANNELS 6 Xposition Yposition Zposition Xrotation Zrotation Yrotation
	JOINT abdomen
	{
		OFFSET 0.000000 3.402643 0.000000 
		CHANNELS 3 Xrotation Zrotation Yrotation
		JOINT chest
		{
			OFFSET 0.000000 8.438565 -0.680529 
			CHANNELS 3 Xrotation Zrotation Yrotation
			JOINT neck
			{
				OFFSET 0.000000 10.207942 -0.272212 
				CHANNELS 3 Xrotation Zrotation Yrotation
				JOINT head
				{
					OFFSET 0.000000 3.130431 0.000000 
					CHANNELS 3 Xrotation Zrotation Yrotation
					End Site
					{
						OFFSET 0.000000 3.130435 0.000000 
					}
				}
			}
			JOINT lCollar
			{
				OFFSET 3.470700 6.669187 -0.816635 
				CHANNELS 3 Yrotation Zrotation Xrotation
				JOINT lShldr
				{
					OFFSET 3.198488 0.000000 0.000000 
					CHANNELS 3 Zrotation Yrotation Xrotation
					JOINT lForeArm
					{
						OFFSET 10.139888 0.000000 0.000000 
						CHANNELS 3 Yrotation Zrotation Xrotation
						JOINT lHand
						{
							OFFSET 8.370511 0.000000 0.000000 
							CHANNELS 3 Zrotation Yrotation Xrotation
							End Site
							{
								OFFSET 4.083176 0.000000 0.000000 
							}
						}
					}
				}
			}
			JOINT rCollar
			{
				OFFSET -3.470700 6.669187 -0.816635 
				CHANNELS 3 Yrotation Zrotation Xrotation
				JOINT rShldr
				{
					OFFSET -3.198488 0.000000 0.000000 
					CHANNELS 3 Zrotation Yrotation Xrotation
					JOINT rForeArm
					{
						OFFSET -10.139888 0.000000 0.000000 
						CHANNELS 3 Yrotation Zrotation Xrotation
						JOINT rHand
						{
							OFFSET -8.370511 0.000000 0.000000 
							CHANNELS 3 Zrotation Yrotation Xrotation
							End Site
							{
								OFFSET -4.083176 0.000000 0.000000 
							}
						}
					}
				}
			}
		}
	}
	JOINT lThigh
	{
		OFFSET 5.308129 -1.633274 1.361059 
		CHANNELS 3 Xrotation Zrotation Yrotation
		JOINT lShin
		{
			OFFSET -2.041588 -20.007561 0.000000 
			CHANNELS 3 Xrotation Zrotation Yrotation
			JOINT lFoot
			{
				OFFSET 0.000000 -19.190928 -1.224953 
				CHANNELS 3 Xrotation Yrotation Zrotation
				End Site
				{
					OFFSET 0.000000 -2.449906 4.627600 
				}
			}
		}
	}
	JOINT rThigh
	{
		OFFSET -5.308129 -1.633274 1.361059 
		CHANNELS 3 Xrotation Zrotation Yrotation
		JOINT rShin
		{
			OFFSET 2.041588 -20.007561 0.000000 
			CHANNELS 3 Xrotation Zrotation Yrotation
			JOINT rFoot
			{
				OFFSET 0.000000 -19.190928 -1.224953 
				CHANNELS 3 Xrotation Yrotation Zrotation
				End Site
				{
					OFFSET 0.000000 -2.449906 4.627600 
				}
			}
		}
	}
}
MOTION
Frames: 16
Frame Time: 0.011111
19.103735 49.012966 14.604195 -6.112152 2.372150 -76.174103 69.341537 1.944149 7.397866 -32.031013 6.632314 -0.107937 -16.441132 -3.177428 -1.711423 -2.449869 -6.835195 -4.875870 2.656661 -4.973740 1.830115 -75.166283 -19.719816 22.376652 -71.616074 8.937709 17.878998 8.524705 12.647240 -43.079479 -4.438679 -1.473473 2.444106 60.397156 46.279465 33.315075 82.860115 -4.823824 24.447117 -8.534408 -12.637552 4.388531 -27.380724 25.457937 -13.961312 38.218643 -4.781125 -5.907744 -3.701758 13.077197 -2.520052 -19.691429 -18.022491 1.612005 54.651325 3.320426 7.637043 -33.457119 -3.657124 -1.074090 
19.227289 48.886955 15.320392 -5.702959 2.342154 -76.557190 69.418625 1.973730 8.224840 -32.228153 6.690765 0.026349 -16.407202 -3.487675 -1.733958 -2.733108 -6.887193 -5.038840 2.656661 -4.973740 1.830115 -75.480797 -19.673531 23.146992 -71.584618 8.943228 17.875576 8.524705 12.647240 -44.632217 -4.438679 -1.473473 2.444106 60.338470 47.220005 32.541996 81.163002 -5.891968 23.225941 -8.534408 -12.637552 5.814312 -27.457283 26.257860 -14.412606 38.010860 -4.800500 -5.866920 -3.001753 13.582385 -2.651105 -19.752232 -18.092766 2.371292 54.318249 3.341779 7.610415 -33.491550 -5.050300 -1.886604 
19.344715 48.776276 16.061422 -5.311326 2.358762 -76.882164 69.436592 2.100353 8.969150 -32.354645 6.633696 0.131470 -16.034569 -3.950268 -1.676655 -3.523138 -6.677885 -5.049645 2.656661 -4.973740 1.830115 -75.687347 -19.649229 23.963171 -71.543358 8.950073 17.851341 8.524705 12.647240 -45.921276 -4.438679 -1.473473 2.444106 60.417866 48.165783 31.841061 79.192795 -6.855758 21.985094 -8.534408 -12.637552 8.187358 -27.545788 26.961260 -14.738763 37.861778 -4.816589 -5.849683 -2.053869 13.611222 -2.850274 -19.778667 -18.217566 3.253671 53.955387 3.380692 7.580452 -33.644382 -5.721171 -2.319326 
19.462139 48.676636 16.800003 -5.063639 2.323737 -77.245995 69.567581 2.119352 9.394527 -32.505955 6.872816 0.168815 -16.399668 -3.603163 -1.609065 -3.239521 -7.987204 -4.824870 2.656661 -4.973740 1.830115 -76.031395 -19.602175 24.646358 -71.533470 8.952071 17.840261 8.524705 12.647240 -46.878307 -4.438679 -1.473473 2.444106 60.429783 49.152954 31.233189 76.992584 -7.683009 20.721722 -8.534408 -12.637552 11.146343 -27.379501 27.439692 -14.946368 37.713337 -4.820264 -5.846834 -0.799503 13.357275 -3.079069 -19.914885 -18.998205 3.270042 53.621861 3.409615 7.556844 -33.356388 -5.181052 -1.943007 
19.592440 48.603050 17.548395 -4.903834 2.369001 -77.591438 69.694344 2.063948 9.617064 -32.828304 7.285233 0.149634 -16.469913 -3.136773 -1.568961 -3.391304 -9.314869 -4.579135 2.656661 -4.973740 1.830115 -76.442101 -19.465578 25.184893 -71.553337 8.947437 17.852676 8.524705 12.647240 -47.679089 -4.438679 -1.473473 2.444106 60.456791 50.032101 30.231285 74.642250 -8.349414 19.456539 -8.534408 -12.637552 14.261579 -27.238497 27.671709 -15.237762 37.663395 -4.829958 -5.835929 0.541407 12.753095 -3.282811 -20.101768 -19.253431 4.882258 53.268715 3.449159 7.527061 -33.438480 -5.585468 -2.188665 
19.723663 48.520882 18.336948 -4.790607 2.500259 -77.889717 69.584763 1.937215 10.620534 -32.031147 6.124192 0.539488 -16.966105 -3.048151 -1.974954 -4.140527 -8.751147 -5.383852 2.656661 -4.973740 1.830115 -75.274277 -20.459753 26.790073 -71.564766 8.947886 17.863161 8.524705 12.647240 -48.118542 -4.438679 -1.473473 2.444106 61.260868 51.481991 27.444586 72.078995 -8.872908 18.128809 -8.534408 -12.637552 17.816265 -27.182449 27.809732 -15.234848 37.722160 -4.836086 -5.833355 2.047558 11.188876 -3.428261 -20.435556 -20.036064 5.652140 52.886852 3.478572 7.480437 -33.122051 -5.401353 -1.990444 
19.840778 48.428600 19.159840 -4.724311 2.644131 -78.250801 69.526154 1.781981 11.120685 -31.681631 5.711052 0.726740 -17.519529 -2.862471 -2.105790 -4.318816 -8.878902 -5.613028 2.656661 -4.973740 1.830115 -74.918388 -20.819534 27.541832 -71.668793 8.930508 17.904001 8.524705 12.647240 -48.714245 -4.438679 -1.473473 2.444106 61.535374 52.665928 25.160587 69.365356 -9.232326 16.786255 -8.534408 -12.637552 22.308451 -27.055437 27.878061 -14.819540 37.912003 -4.800894 -5.868322 3.518594 8.365290 -3.405865 -20.662804 -20.585026 6.947162 52.386627 3.527555 7.433022 -32.778099 -6.561730 -2.520051 
19.948395 48.366978 20.001131 -4.624594 2.715464 -78.644157 69.494446 1.639218 11.673578 -31.641230 5.664956 0.867409 -18.052750 -2.611597 -2.160245 -3.993644 -9.654743 -5.692538 2.656661 -4.973740 1.830115 -74.929016 -20.848598 28.206163 -71.688522 8.926411 17.926170 8.524705 12.647240 -49.104870 -4.438679 -1.473473 2.444106 61.457489 53.529285 22.445900 66.601608 -9.421588 15.445612 -8.534408 -12.637552 27.093609 -26.773735 27.800772 -14.624115 38.148731 -4.790767 -5.904844 4.373923 5.554236 -3.250294 -20.759743 -21.170475 7.891791 51.768921 3.595842 7.355385 -32.101803 -7.995235 -3.073756 
20.061527 48.325890 20.889324 -4.783854 2.967007 -78.842140 69.296989 1.669646 11.862609 -31.732382 5.907237 0.875968 -17.267954 -3.595523 -2.074781 -5.442248 -8.568924 -5.814878 2.656661 -4.973740 1.830115 -75.399818 -20.730396 28.560846 -71.678665 8.928460 17.915087 8.524705 12.647240 -49.016979 -4.438679 -1.473473 2.444106 61.065601 54.305328 19.042967 63.801830 -9.455940 14.136669 -8.534408 -12.637552 30.931501 -26.535704 27.193232 -14.632721 38.436222 -4.771397 -5.923444 4.896127 3.554703 -3.109777 -20.978502 -22.406256 8.488153 51.002586 3.674090 7.297934 -31.641552 -8.158515 -3.010638 
20.169140 48.283585 21.792238 -4.881336 3.199159 -78.886086 69.143860 1.957330 11.876872 -31.683428 5.898092 0.832892 -17.168873 -4.013918 -1.992934 -6.107488 -8.094308 -5.793354 2.656661 -4.973740 1.830115 -75.743835 -20.673626 28.612694 -71.774025 8.916398 17.965324 8.524705 12.647240 -48.724010 -4.438679 -1.473473 2.444106 61.069389 55.302940 14.970903 61.021355 -9.353027 12.871504 -8.534408 -12.637552 33.421738 -26.348665 26.547894 -14.743802 38.792568 -4.741970 -5.974360 4.876687 2.154373 -3.007631 -21.024757 -23.622562 8.823275 50.129036 3.762093 7.196579 -31.117931 -8.548773 -3.036699 
20.247015 48.232689 22.663879 -4.996818 3.406036 -79.098801 68.968147 1.733680 11.737203 -31.620115 6.311198 0.827666 -17.339163 -3.728958 -1.998168 -6.497162 -8.596253 -5.710236 2.656661 -4.973740 1.830115 -76.107277 -20.606577 28.710421 -71.897392 8.893913 18.029974 8.524705 12.647240 -48.440804 -4.438679 -1.473473 2.444106 61.040794 56.154953 11.955338 58.913136 -9.183828 11.928679 -8.534408 -12.637552 38.949078 -25.933954 25.945353 -14.450471 39.248402 -4.703064 -6.021019 3.844692 1.671315 -3.008539 -21.008337 -24.671906 9.380860 49.205662 3.849959 7.099174 -30.383690 -9.434450 -3.212088 
20.341446 48.166771 23.617071 -5.018644 3.648074 -78.969658 68.689072 2.063548 11.803368 -31.469116 6.018419 0.823989 -17.736069 -4.417363 -1.741734 -6.023845 -7.031481 -5.550252 2.656661 -4.973740 1.830115 -75.862984 -20.700171 28.938152 -71.867706 8.901550 18.016190 8.524705 12.647240 -48.138069 -4.438679 -1.473473 2.444106 61.367264 57.181190 6.559147 56.640251 -8.921212 10.934477 -8.534408 -12.637552 40.062363 -25.697147 25.240807 -13.976102 39.830711 -4.679956 -6.073215 0.788312 1.354852 -3.038954 -20.876730 -25.867361 9.927108 48.232399 3.937990 7.006160 -30.231825 -9.045381 -2.993062 
20.431276 48.103306 24.592340 -5.255960 3.936176 -78.934090 68.356316 2.244275 11.815490 -31.448544 5.936208 0.810266 -17.658329 -4.823885 -1.649752 -6.237215 -6.325069 -5.550914 2.656661 -4.973740 1.830115 -75.635056 -20.666368 29.547268 -71.897392 8.893913 18.029974 8.524705 12.647240 -47.317760 -4.438679 -1.473473 2.444106 60.963017 57.683701 1.327845 54.946293 -8.672494 10.205846 -8.534408 -12.637552 41.624851 -25.259052 24.264956 -12.961712 40.413280 -4.641043 -6.149713 -2.016436 0.726124 -3.095739 -20.857994 -27.293835 10.891604 47.229218 4.035740 6.894527 -30.303780 -8.113936 -2.568598 
20.502407 48.058548 25.530819 -5.480923 4.136195 -79.083580 68.059685 2.153993 11.882086 -31.539310 6.141500 0.835480 -17.648121 -4.813864 -1.684515 -6.233489 -6.710318 -5.617931 2.656661 -4.973740 1.830115 -75.452354 -20.475206 30.505827 -71.959808 8.883329 18.056414 8.524705 12.647240 -45.813854 -4.438679 -1.473473 2.444106 60.083134 57.790359 -3.729471 53.785397 -8.479319 9.719479 -8.534408 -12.637552 43.187359 -24.814875 23.432013 -11.500045 41.106209 -4.566264 -6.242096 -4.640630 -0.725642 -3.247371 -20.737572 -28.482439 11.987792 46.195827 4.123629 6.793904 -29.804005 -8.298044 -2.513444 
20.549009 48.038925 26.442619 -5.597712 4.146382 -79.500137 67.923721 1.818440 12.162183 -31.757452 6.344748 0.935986 -17.038830 -5.116851 -1.788518 -6.840549 -6.555703 -5.840824 2.656661 -4.973740 1.830115 -75.472252 -20.103540 31.011080 -72.002350 8.878200 18.081676 8.524705 12.647240 -44.807995 -4.438679 -1.473473 2.444106 59.191730 57.603096 -8.889227 53.089169 -8.348641 9.425176 -8.534408 -12.637552 44.271343 -24.207243 22.938337 -9.467314 41.866882 -4.504466 -6.324939 -6.961932 -2.399971 -3.507253 -20.475346 -29.333241 13.326978 45.162014 4.211735 6.682454 -28.725210 -9.444828 -2.701043 
20.631479 48.018993 27.467556 -5.459890 4.387746 -79.290985 67.411423 2.288720 12.779208 -31.845850 6.366022 0.981181 -16.472942 -5.572001 -1.859440 -7.322239 -6.355167 -6.070862 2.656661 -4.973740 1.830115 -75.934601 -19.672806 31.137825 -72.064659 8.867352 18.108150 8.524705 12.647240 -44.397842 -4.438679 -1.473473 2.444106 57.828236 57.096584 -13.582758 52.889679 -8.312707 9.339823 -8.534408 -12.637552 45.814308 -24.515076 22.183392 -8.023478 42.843952 -4.419766 -6.446353 -9.057021 -3.506233 -3.777975 -20.200163 -30.230253 14.321763 44.177155 4.299705 6.554560 -27.697866 -10.335620 -2.760440 
